<?xml version="1.0" encoding="UTF-8"?>
<svg width="32px" height="32px" viewBox="0 0 32 32" version="1.1" xmlns="http://www.w3.org/2000/svg" xmlns:xlink="http://www.w3.org/1999/xlink">
    <!-- Generator: Sketch 46.2 (44496) - http://www.bohemiancoding.com/sketch -->
    <title>图片</title>
    <desc>Created with Sketch.</desc>
    <defs></defs>
    <g id="学讯通" stroke="none" stroke-width="1" fill="none" fill-rule="evenodd">
        <g id="图片" fill-rule="nonzero" fill="#797979">
            <path d="M28.6095138,0 L3.39048623,0 C1.07985629,0 0,1.07985629 0,3.39048623 L0,28.6095138 C0,30.9201437 1.07985629,32 3.39048623,32 L28.6095138,32 C30.9201437,32 32,30.9201437 32,28.6095138 L32,3.39048623 C32,1.07985629 30.9201804,0 28.6095138,0 Z M3.39048623,1.52381653 L28.6095138,1.52381653 C30.0798913,1.52381653 30.4761835,1.92007206 30.4761835,3.39048626 L30.4761835,9.08161653 C25.1001809,9.27008228 20.0758564,11.448581 16.2574269,15.2670104 C14.467955,17.0565189 13.0395443,19.1113529 12.006098,21.3425575 C9.01545924,18.8054168 4.68598776,18.6427542 1.5238165,20.8548263 L1.52381653,3.39048623 C1.52381653,1.92007202 1.92007202,1.52381653 3.39048623,1.52381653 Z M1.52381653,28.6095138 L1.52381653,22.8278158 C4.26536675,20.1661675 8.64552829,20.1689164 11.3833766,22.8365757 C10.5128861,25.1753912 10.057189,27.675953 10.057189,30.2476202 C10.057189,30.3272655 10.0695041,30.4040153 10.0921918,30.4761835 L3.39048623,30.4761835 C1.92007202,30.4761835 1.52381653,30.079928 1.52381653,28.6095138 Z M28.6095138,30.4761835 L11.5460026,30.4761835 C11.5686903,30.4040153 11.5810054,30.3272655 11.5810054,30.2476202 C11.5810054,24.9925699 13.6245139,20.0549646 17.3350025,16.344476 C20.8655653,12.8139132 25.5073505,10.7940821 30.4762201,10.6063493 L30.4762201,28.6095138 C30.4761835,30.079928 30.079928,30.4761835 28.6095138,30.4761835 Z M8.85078076,12.4705184 C11.0298292,12.4705184 12.8026243,10.69776 12.8026243,8.51867491 C12.8026243,6.33958983 11.0298658,4.56683137 8.85078076,4.56683137 C6.67169568,4.56683137 4.89893722,6.33958983 4.89893722,8.51867491 C4.89893722,10.69776 6.67169568,12.4705184 8.85078076,12.4705184 Z M8.85078076,6.09068451 C10.1895768,6.09068451 11.2788078,7.17987885 11.2788078,8.51871155 C11.2788078,9.85754425 10.1896135,10.9467386 8.85078076,10.9467386 C7.51194806,10.9467386 6.42275372,9.85754425 6.42275372,8.51871155 C6.42275372,7.17987885 7.51194806,6.09068451 8.85078076,6.09068451 Z" id="Shape"></path>
        </g>
    </g>
</svg>