<?xml version="1.0" encoding="UTF-8"?>
<svg width="114px" height="114px" viewBox="0 0 114 114" version="1.1" xmlns="http://www.w3.org/2000/svg" xmlns:xlink="http://www.w3.org/1999/xlink">
    <!-- Generator: Sketch 46.2 (44496) - http://www.bohemiancoding.com/sketch -->
    <title>Group 7</title>
    <desc>Created with Sketch.</desc>
    <defs></defs>
    <g id="学讯通" stroke="none" stroke-width="1" fill="none" fill-rule="evenodd">
        <g id="报告详情--留言-收起-老师" transform="translate(-319.000000, -918.000000)">
            <g id="Group-7" transform="translate(319.000000, 918.000000)">
                <circle id="Oval-5" fill="#FFFFFF" opacity="0.3" cx="57" cy="57" r="57"></circle>
                <circle id="Oval-5" fill="#FFFFFF" opacity="0.7" cx="57" cy="57" r="45"></circle>
                <g id="播放" transform="translate(45.000000, 34.000000)" fill-rule="nonzero" fill="#4682F7">
                    <path d="M35.9075663,21.0693944 L35.9087194,21.068265 L5.91699779,0.925613953 L5.90762829,0.93427299 C5.28621521,0.356328293 4.44320181,0.000648250489 3.51408524,0.000648250489 C1.60285441,0.000648250489 0.0535740279,1.50304096 0.0535740279,3.35763125 C0.0535740279,4.37619939 0.00874463071,6.37046397 0.0535740279,6.32721579 L0.0535740279,23.5002823 L0.0535740279,41.5769493 L0.0535740279,43.6434511 C0.0535740279,45.4969119 1.60285441,46.9993517 3.51408524,46.9993517 C4.44670935,46.9993517 5.29327836,46.6413658 5.9146434,46.0581503 L5.91699779,46.0593268 L35.9087195,25.9172875 L35.9075663,25.9154992 C36.5595864,25.3052242 36.9663662,24.4489663 36.9663662,23.4996705 L36.9663662,23.4927527 L36.9663662,23.4858819 C36.9663662,22.5364921 36.5595863,21.6796224 35.9075663,21.0693944 Z" id="Shape"></path>
                </g>
            </g>
        </g>
    </g>
</svg>