<?xml version="1.0" encoding="UTF-8"?>
<svg width="32px" height="32px" viewBox="0 0 32 32" version="1.1" xmlns="http://www.w3.org/2000/svg" xmlns:xlink="http://www.w3.org/1999/xlink">
    <!-- Generator: Sketch 46.2 (44496) - http://www.bohemiancoding.com/sketch -->
    <title>视频</title>
    <desc>Created with Sketch.</desc>
    <defs></defs>
    <g id="学讯通" stroke="none" stroke-width="1" fill="none" fill-rule="evenodd">
        <g id="视频">
            <g id="Combined-Shape" fill="#797979">
                <path d="M28.6095138,0 C30.9201804,0 32,1.07985629 32,3.39048623 L32,28.6095138 C32,30.9201437 30.9201437,32 28.6095138,32 L3.39048623,32 C1.07985629,32 0,30.9201437 0,28.6095138 L0,3.39048623 C0,1.07985629 1.07985629,0 3.39048623,0 L28.6095138,0 Z M27.3133476,1.75609756 L4.68665237,1.75609756 C2.09710366,1.75609756 1.75609756,2.09519817 1.75609756,4.68665237 L1.75609756,27.3133476 C1.75609756,30.2378811 2.0902439,30.2439024 4.68665237,30.2439024 L27.3133476,30.2439024 C30.1578506,30.2439024 30.2439024,30.0953506 30.2439024,27.3133476 L30.2439024,4.68665237 C30.2439024,2.24801829 30.2253049,1.75609756 27.3133476,1.75609756 Z"></path>
            </g>
            <g id="iconset0481" transform="translate(11.000000, 9.000000)" fill-rule="nonzero" fill="#868686">
                <path d="M13.65,6.83333334 L13.65,6.83333334 L13.475,6.75000002 C13.475,6.75000002 13.475,6.75000002 13.3875,6.75000002 L1.39999999,0.16666668 L1.39999999,0.16666668 C1.22500001,0.0833333205 1.05,5.68434189e-14 0.874999987,5.68434189e-14 C0.349999987,5.68434189e-14 5.68434189e-14,0.333333321 5.68434189e-14,0.833333322 L5.68434189e-14,14.1666667 C5.68434189e-14,14.6666667 0.349999987,15 0.874999987,15 C1.05,15 1.22499997,14.9166667 1.39999999,14.8333333 L1.39999999,14.8333333 L13.3875,8.24999998 C13.3875,8.24999998 13.3875,8.24999998 13.475,8.24999998 L13.65,8.16666666 L13.65,8.16666666 C13.825,7.99999998 14,7.74999998 14,7.49999998 C14,7.24999998 13.825,7.00000002 13.65,6.83333334 Z M1.75000002,12.75 L1.75000002,2.25000001 L11.375,7.50000002 L1.75000002,12.75 Z" id="Shape"></path>
            </g>
        </g>
    </g>
</svg>